<svg id="Layer_1" data-name="Layer 1" xmlns="http://www.w3.org/2000/svg" viewBox="0 0 657.32 100"><defs><style>.cls-1,.cls-2{fill:#fff;}.cls-1{fill-rule:evenodd;}</style></defs><title>white logo 100px</title><path class="cls-1" d="M13.24,26.17h10v11.2H17.32a4.16,4.16,0,0,0-4.15,4.14V71.07a4.16,4.16,0,0,0,4.15,4.14H46.88A4.15,4.15,0,0,0,51,71.07V41.51a4.15,4.15,0,0,0-4.14-4.14H39.7V26.17H51A11.3,11.3,0,0,1,62.22,37.43V75.15A11.3,11.3,0,0,1,51,86.41H16.58L2,100.94V37.43A11.3,11.3,0,0,1,13.24,26.17Z"/><path class="cls-1" d="M74.83.94H37.11A11.3,11.3,0,0,0,25.85,12.2V49.92A11.3,11.3,0,0,0,37.11,61.18H48.36V50H41.19a4.15,4.15,0,0,1-4.14-4.14V16.28a4.16,4.16,0,0,1,4.14-4.15H70.75a4.16,4.16,0,0,1,4.14,4.15V45.84A4.15,4.15,0,0,1,70.75,50H64.88v11.2h10l11.26,9V12.2A11.3,11.3,0,0,0,74.83.94Z"/><path class="cls-2" d="M111.18,87.05V23.38h7.06a3.48,3.48,0,0,1,1.92.51,2.45,2.45,0,0,1,1,1.59l.94,4.45a24,24,0,0,1,6.66-5.38,18.13,18.13,0,0,1,8.82-2.06,15.6,15.6,0,0,1,7.18,1.64,16.08,16.08,0,0,1,5.62,4.75,22.88,22.88,0,0,1,3.65,7.67A38.53,38.53,0,0,1,155.35,47a32.8,32.8,0,0,1-1.46,10,24,24,0,0,1-4.14,8,18.63,18.63,0,0,1-15,7.16,17.13,17.13,0,0,1-6.9-1.24,16.55,16.55,0,0,1-5.07-3.44V87.05Zm22.46-55.44a11.85,11.85,0,0,0-6.16,1.52,17.78,17.78,0,0,0-4.74,4.28V58.94A10.9,10.9,0,0,0,127,62.33a12.85,12.85,0,0,0,5,1,11.16,11.16,0,0,0,4.75-1,9.14,9.14,0,0,0,3.6-3,14.81,14.81,0,0,0,2.27-5.08,29,29,0,0,0,.8-7.22,32.25,32.25,0,0,0-.68-7.14,13.81,13.81,0,0,0-2-4.75,7.7,7.7,0,0,0-3.06-2.67A9.58,9.58,0,0,0,133.64,31.61Z"/><path class="cls-2" d="M184.59,22.63a26.4,26.4,0,0,1,9.75,1.73,21,21,0,0,1,7.46,4.91A21.82,21.82,0,0,1,206.58,37a29.62,29.62,0,0,1,1.68,10.25,29.77,29.77,0,0,1-1.68,10.29,22.26,22.26,0,0,1-4.78,7.81,20.68,20.68,0,0,1-7.46,5,28.42,28.42,0,0,1-19.53,0,20.88,20.88,0,0,1-7.51-5,22.2,22.2,0,0,1-4.82-7.81,29.3,29.3,0,0,1-1.71-10.29A29.15,29.15,0,0,1,162.48,37a21.76,21.76,0,0,1,4.82-7.77,21.16,21.16,0,0,1,7.51-4.91A26.56,26.56,0,0,1,184.59,22.63Zm0,40.56q6,0,8.86-4t2.88-11.79q0-7.77-2.88-11.84t-8.86-4.07q-6.09,0-9,4.1t-2.9,11.81q0,7.73,2.9,11.77T184.59,63.19Z"/><path class="cls-2" d="M229.59,1.86V71.38H218V1.86Z"/><path class="cls-2" d="M256.68,9.39a6.55,6.55,0,0,1-.61,2.81,7.71,7.71,0,0,1-1.61,2.29,7.85,7.85,0,0,1-2.36,1.57,7.26,7.26,0,0,1-2.9.58,7,7,0,0,1-2.83-.58,7.66,7.66,0,0,1-2.32-1.57,7.77,7.77,0,0,1-1.57-2.29,6.83,6.83,0,0,1-.58-2.81,7.22,7.22,0,0,1,.58-2.9,7.4,7.4,0,0,1,1.57-2.34,7.49,7.49,0,0,1,2.32-1.57A7,7,0,0,1,249.2,2a7.26,7.26,0,0,1,2.9.58,7.67,7.67,0,0,1,2.36,1.57,7.34,7.34,0,0,1,1.61,2.34A6.92,6.92,0,0,1,256.68,9.39Z"/><rect class="cls-2" x="243.4" y="23.38" width="11.56" height="48"/><path class="cls-2" d="M301.74,33.53a5.83,5.83,0,0,1-1,1,2.31,2.31,0,0,1-1.42.37,3.19,3.19,0,0,1-1.74-.53c-.56-.36-1.23-.77-2-1.22A15.43,15.43,0,0,0,292.78,32a13.09,13.09,0,0,0-4-.53,12.27,12.27,0,0,0-5.34,1.09,10.23,10.23,0,0,0-3.81,3.16,14.41,14.41,0,0,0-2.27,5,26.67,26.67,0,0,0-.75,6.62,26.26,26.26,0,0,0,.82,6.83,14.76,14.76,0,0,0,2.37,5,10.08,10.08,0,0,0,3.74,3.08,11.22,11.22,0,0,0,5,1.06,12.26,12.26,0,0,0,4.46-.68,13.78,13.78,0,0,0,2.88-1.5q1.17-.81,2-1.5a3.07,3.07,0,0,1,1.94-.67A2.34,2.34,0,0,1,301.93,60l3.32,4.21A20.7,20.7,0,0,1,301.08,68a22.7,22.7,0,0,1-4.65,2.43,23.62,23.62,0,0,1-5,1.29,35.17,35.17,0,0,1-5.09.37A21.24,21.24,0,0,1,278,70.42a19.37,19.37,0,0,1-6.85-4.84,23.38,23.38,0,0,1-4.64-7.79,30.27,30.27,0,0,1-1.7-10.5,30.39,30.39,0,0,1,1.52-9.81,22.07,22.07,0,0,1,4.47-7.81,20.43,20.43,0,0,1,7.29-5.17,25.12,25.12,0,0,1,10-1.87,23.85,23.85,0,0,1,9.42,1.73,23,23,0,0,1,7.28,5Z"/><path class="cls-2" d="M329.67,84.57a4.43,4.43,0,0,1-1.33,1.85,4.12,4.12,0,0,1-2.51.63h-8.61l9-19.23L306.79,23.38H316.9a3.21,3.21,0,0,1,2.15.65,4.34,4.34,0,0,1,1.12,1.5l10.25,24.89a22.19,22.19,0,0,1,.89,2.53c.25.87.46,1.74.65,2.62.25-.91.52-1.78.82-2.62s.62-1.7,1-2.58l9.64-24.84A3.37,3.37,0,0,1,344.62,24a3.24,3.24,0,0,1,1.94-.61h9.26Z"/><path class="cls-2" d="M398,71.38h-3.69a4.44,4.44,0,0,1-2-.37,2.08,2.08,0,0,1-1-1.59l-.94-4.4c-1.24,1.12-2.46,2.13-3.64,3a21.74,21.74,0,0,1-3.75,2.24,19.07,19.07,0,0,1-4.19,1.38,24.07,24.07,0,0,1-4.93.47,17,17,0,0,1-5.17-.77A11.91,11.91,0,0,1,364.57,69a11.08,11.08,0,0,1-2.83-3.92,13.77,13.77,0,0,1-1.05-5.61,10.47,10.47,0,0,1,1.54-5.42,13.62,13.62,0,0,1,5-4.63,33,33,0,0,1,9-3.31,61.34,61.34,0,0,1,13.62-1.29V41.13q0-5.55-2.37-8.4t-7-2.85a14.88,14.88,0,0,0-5.12.77,20.61,20.61,0,0,0-3.61,1.73c-1,.64-1.88,1.22-2.62,1.74a3.8,3.8,0,0,1-2.17.77,2.49,2.49,0,0,1-1.48-.45,3.29,3.29,0,0,1-1-1.1L363,30.68A26.83,26.83,0,0,1,371.45,25a26.09,26.09,0,0,1,10.06-1.88,18,18,0,0,1,7.06,1.31,14.64,14.64,0,0,1,5.2,3.65A15.58,15.58,0,0,1,397,33.76a23.84,23.84,0,0,1,1.07,7.3Zm-21.61-5.1a17.31,17.31,0,0,0,4-.44,15.89,15.89,0,0,0,3.44-1.27,17.58,17.58,0,0,0,3.09-2,27.29,27.29,0,0,0,2.88-2.67V50.14a55.46,55.46,0,0,0-9.78.73,27,27,0,0,0-6.55,1.91,9.17,9.17,0,0,0-3.68,2.77,6,6,0,0,0-1.14,3.58,7.89,7.89,0,0,0,.61,3.25,6.12,6.12,0,0,0,1.63,2.23,6.39,6.39,0,0,0,2.44,1.27A10.9,10.9,0,0,0,376.41,66.28Z"/><path class="cls-2" d="M444,71.38a2.12,2.12,0,0,1-2.24-1.73L441,63.9a24.92,24.92,0,0,1-6.95,5.91,17.7,17.7,0,0,1-9,2.23,17.17,17.17,0,0,1-7.39-1.57,15.39,15.39,0,0,1-5.66-4.61,21.89,21.89,0,0,1-3.6-7.58,38.64,38.64,0,0,1-1.27-10.43,32.57,32.57,0,0,1,1.41-9.76,23.62,23.62,0,0,1,4-7.83,18.6,18.6,0,0,1,15.05-7.12,17.2,17.2,0,0,1,7.44,1.48,18,18,0,0,1,5.52,4.14V2.46H449V71.38ZM427.87,65.3A13.5,13.5,0,0,0,435,63.43a20.68,20.68,0,0,0,5.64-5.29V35.22a13.16,13.16,0,0,0-5-4.33,14.5,14.5,0,0,0-6.06-1.24q-6.65,0-10.2,4.72T415.8,47.85a34.31,34.31,0,0,0,.8,7.93,15.12,15.12,0,0,0,2.34,5.42,9.23,9.23,0,0,0,3.79,3.12A12.77,12.77,0,0,0,427.87,65.3Z"/><path class="cls-2" d="M457,24h6.83a2.59,2.59,0,0,1,1.64.51,2.9,2.9,0,0,1,.94,1.22l12,30.5a22.81,22.81,0,0,1,1,3.37c.25,1.12.48,2.23.7,3.32.25-1.09.52-2.2.8-3.32A29.17,29.17,0,0,1,482,56.22l12.17-30.5a2.81,2.81,0,0,1,.91-1.24,2.45,2.45,0,0,1,1.57-.49h6.5L483.83,71.38h-7.54Z"/><path class="cls-2" d="M522,9.11a5.27,5.27,0,0,1-.5,2.27,6.38,6.38,0,0,1-1.31,1.87,6.22,6.22,0,0,1-1.89,1.29A5.71,5.71,0,0,1,516,15a5.52,5.52,0,0,1-2.27-.46,6.38,6.38,0,0,1-1.87-1.29,6.14,6.14,0,0,1-1.29-1.87,5.56,5.56,0,0,1-.47-2.27,5.94,5.94,0,0,1,.47-2.32,6,6,0,0,1,1.29-1.92,6.16,6.16,0,0,1,1.87-1.28A5.52,5.52,0,0,1,516,3.12a5.72,5.72,0,0,1,2.29.47,6,6,0,0,1,1.89,1.28,6.23,6.23,0,0,1,1.31,1.92A5.63,5.63,0,0,1,522,9.11ZM520.13,24V71.38h-8.32V24Z"/><path class="cls-2" d="M562,31.8a1.83,1.83,0,0,1-1.73,1,3.18,3.18,0,0,1-1.59-.52c-.59-.34-1.32-.72-2.18-1.14A20.52,20.52,0,0,0,553.4,30a14.6,14.6,0,0,0-4.21-.54,12.34,12.34,0,0,0-3.79.54,9.3,9.3,0,0,0-2.88,1.47,6.6,6.6,0,0,0-1.82,2.18,5.83,5.83,0,0,0-.64,2.69,4.5,4.5,0,0,0,1.06,3,9.12,9.12,0,0,0,2.78,2.1,23.48,23.48,0,0,0,3.93,1.57c1.47.45,3,.94,4.52,1.45s3,1.09,4.51,1.71a16,16,0,0,1,3.93,2.34A10.73,10.73,0,0,1,563.57,52a10.42,10.42,0,0,1,1.06,4.89,15.51,15.51,0,0,1-1.17,6.06A13.28,13.28,0,0,1,560,67.75,16.64,16.64,0,0,1,554.38,71a23,23,0,0,1-7.67,1.17,24,24,0,0,1-9-1.61,22.81,22.81,0,0,1-6.84-4.15l2-3.18a2.84,2.84,0,0,1,.89-.93,2.47,2.47,0,0,1,1.36-.33,3.09,3.09,0,0,1,1.77.66c.63.43,1.38.92,2.27,1.45a17.86,17.86,0,0,0,3.23,1.45,14.92,14.92,0,0,0,4.75.65,13.09,13.09,0,0,0,4.26-.63,8.93,8.93,0,0,0,3-1.71,6.76,6.76,0,0,0,1.8-2.48,7.66,7.66,0,0,0,.58-3,5,5,0,0,0-1-3.25,8.89,8.89,0,0,0-2.78-2.2,22.37,22.37,0,0,0-4-1.59c-1.48-.46-3-.93-4.53-1.43s-3.06-1.07-4.54-1.71a16.06,16.06,0,0,1-4-2.41,10.86,10.86,0,0,1-2.78-3.58A11.59,11.59,0,0,1,532.16,37a12.52,12.52,0,0,1,1.12-5.21,12.72,12.72,0,0,1,3.28-4.4,16,16,0,0,1,5.28-3A21.14,21.14,0,0,1,549,23.24a22.7,22.7,0,0,1,8.4,1.47,19.76,19.76,0,0,1,6.43,4.05Z"/><path class="cls-2" d="M594.62,23.24A24.42,24.42,0,0,1,604,25a19.75,19.75,0,0,1,7.11,4.91,21.67,21.67,0,0,1,4.49,7.7,30.72,30.72,0,0,1,1.57,10.08,30.74,30.74,0,0,1-1.57,10.11,21.71,21.71,0,0,1-4.49,7.67A19.58,19.58,0,0,1,604,70.33a26.58,26.58,0,0,1-18.76,0,19.78,19.78,0,0,1-7.14-4.89,22,22,0,0,1-4.54-7.67A30.21,30.21,0,0,1,572,47.66a30.2,30.2,0,0,1,1.59-10.08,21.92,21.92,0,0,1,4.54-7.7A20,20,0,0,1,585.24,25,24.38,24.38,0,0,1,594.62,23.24Zm0,42.29q7,0,10.48-4.7t3.46-13.12q0-8.48-3.46-13.2t-10.48-4.72A14.59,14.59,0,0,0,588.44,31a11.69,11.69,0,0,0-4.37,3.51,15.49,15.49,0,0,0-2.62,5.64,30.09,30.09,0,0,0-.87,7.56,29.79,29.79,0,0,0,.87,7.53,15.24,15.24,0,0,0,2.62,5.59,11.64,11.64,0,0,0,4.37,3.49A14.59,14.59,0,0,0,594.62,65.53Z"/><path class="cls-2" d="M627.46,71.38V24h4.77a2.63,2.63,0,0,1,1.87.51,3.15,3.15,0,0,1,.71,1.78l.56,7.39a21.6,21.6,0,0,1,6-7.74,13.26,13.26,0,0,1,8.4-2.79,13,13,0,0,1,3.55.45,12.51,12.51,0,0,1,2.95,1.24l-1.07,6.22a1.42,1.42,0,0,1-1.46,1.17,7.56,7.56,0,0,1-2-.44,12.53,12.53,0,0,0-3.79-.45,10.7,10.7,0,0,0-7.27,2.53,18.92,18.92,0,0,0-4.89,7.34V71.38Z"/></svg>